<svg xmlns="http://www.w3.org/2000/svg" xmlns:xlink="http://www.w3.org/1999/xlink" viewBox="0,0,256,256" width="48px" height="48px"><g transform="translate(44.8,44.8) scale(0.65,0.65)"><g fill="none" fill-rule="nonzero" stroke="#5c7cfa" stroke-width="16" stroke-linecap="butt" stroke-linejoin="miter" stroke-miterlimit="10" stroke-dasharray="" stroke-dashoffset="0" font-family="none" font-weight="none" font-size="none" text-anchor="none" style="mix-blend-mode: normal"><path d="M128,314.68459c-103.10305,0 -186.68459,-83.58154 -186.68459,-186.68459v0c0,-103.10305 83.58154,-186.68459 186.68459,-186.68459v0c103.10305,0 186.68459,83.58154 186.68459,186.68459v0c0,103.10305 -83.58154,186.68459 -186.68459,186.68459z" id="shape"></path></g><g fill="#5c7cfa" fill-rule="nonzero" stroke="none" stroke-width="1" stroke-linecap="butt" stroke-linejoin="miter" stroke-miterlimit="10" stroke-dasharray="" stroke-dashoffset="0" font-family="none" font-weight="none" font-size="none" text-anchor="none" style="mix-blend-mode: normal"><g transform="translate(-1.6,-16) scale(5.33333,5.33333)"><path d="M39.5,43h-9c-1.381,0 -2.5,-1.119 -2.5,-2.5v-9c0,-1.105 -0.895,-2 -2,-2h-4c-1.105,0 -2,0.895 -2,2v9c0,1.381 -1.119,2.5 -2.5,2.5h-9c-1.381,0 -2.5,-1.119 -2.5,-2.5v-19.087c0,-2.299 1.054,-4.471 2.859,-5.893l14.212,-11.199c0.545,-0.428 1.313,-0.428 1.857,0l14.214,11.199c1.805,1.422 2.858,3.593 2.858,5.891v19.089c0,1.381 -1.119,2.5 -2.5,2.5z"></path></g></g></g></svg>